<?xml version="1.0" encoding="UTF-8"?>
<svg width="752pt" height="752pt" version="1.1" viewBox="0 0 752 752" xmlns="http://www.w3.org/2000/svg">
 <path d="m597.99 242.71v286.47c-43.355-19.703-90.43-29.902-138.05-29.906-5.5391 0-11.156 0.16016-16.691 0.39453l-23.734 1.1836c1.1094-0.39453 2.2148-0.87109 3.4023-1.3438 2.7695-0.94922 5.5391-1.8984 8.3867-2.7695 3.4023-1.1094 6.8047-2.2148 10.285-3.1641 2.7695-0.79297 5.6172-1.582 8.543-2.293 3.4023-0.79297 6.8828-1.582 10.363-2.293 2.8477-0.63281 5.7734-1.1836 8.625-1.6602 3.5586-0.63281 7.1211-1.1094 10.602-1.582 2.9258-0.39453 5.7773-0.79297 8.7031-1.1094 3.5586-0.39453 7.1992-0.63281 10.84-0.79297 2.8477-0.23828 5.6992-0.39453 8.4648-0.55469 3.7969-0.078125 7.5938 0 11.391 0 2.6914 0 5.3789 0 8.0664 0.078125 4.1953 0.16016 8.4648 0.55469 12.66 0.87109 2.293 0.23828 4.5078 0.31641 6.8047 0.55469 6.4883 0.71094 12.977 1.6602 19.383 2.7695h-0.003906c2.2266 0.45703 4.543-0.15625 6.25-1.6602 1.7539-1.4375 2.7695-3.5898 2.7695-5.8555v-237.34zm-277.21 254.03c-3.4023-1.1094-6.8828-2.2148-10.363-3.1641-2.8477-0.79297-5.6172-1.582-8.4648-2.2148-3.4805-0.87109-6.9609-1.6602-10.441-2.375-2.8477-0.63281-5.7734-1.1836-8.625-1.6602-3.5586-0.63281-7.1211-1.1836-10.602-1.6602-2.9258-0.31641-5.7734-0.71094-8.625-1.0273-3.6367-0.39453-7.2773-0.63281-10.918-0.87109-2.8477-0.16016-5.6172-0.39453-8.4648-0.47656-3.7969-0.078124-7.5938-0.078124-11.469 0-2.6094 0-5.3008 0-7.9922 0.078126-4.1953 0.16016-8.4648 0.55469-12.66 0.87109-2.293 0.23828-4.5078 0.31641-6.8047 0.55469-6.4883 0.71094-12.977 1.6602-19.383 2.7695h0.003906c-2.2305 0.39453-4.5156-0.21484-6.2539-1.6641-1.7383-1.4492-2.75-3.5898-2.7656-5.8516v-237.34h-22.941v286.47c48.5-22.004 101.55-32.121 154.74-29.512l23.734 1.1836c-1.1094-0.39453-2.293-0.94922-3.4766-1.3438-2.6953-0.94531-5.4609-1.8945-8.2305-2.7656zm23.734-251.58 23.812 10.285v243.59l-17.801-7.5977c-5.6172-2.4531-11.234-4.5859-16.93-6.6445-1.7422-0.55469-3.4023-1.1094-5.0625-1.6602-4.3516-1.5039-8.7031-2.8477-13.133-4.1133-1.582-0.39453-3.1641-0.87109-4.7461-1.3438-5.7734-1.5039-11.551-2.9258-17.324-4.1133-1.1094-0.16016-2.2148-0.31641-3.3242-0.55469-4.8242-0.94922-9.7305-1.7422-14.559-2.375-1.8984-0.23828-3.7188-0.47266-5.6172-0.71094-4.5859-0.55469-9.2578-1.0273-13.926-1.3438-1.4219-0.078125-2.8477-0.23828-4.2734-0.31641-5.3008-0.23828-10.68-0.47266-15.984-0.47266-0.47266 0-0.94922 0.078126-1.3438 0.078126-4.9062 0-9.7305 0.23828-14.559 0.55469-2.2148 0.078125-4.3516 0.078125-6.4883 0.23828-7.0391 0.55469-14.004 1.3438-21.043 2.375l0.003906-244.79c48.891-7.7734 98.973-2.2812 145.02 15.902 2.375 1.0312 4.8281 1.9805 7.2812 3.0078zm-8.2266 157.99h-0.003906c-35.402-11.582-72.48-17.223-109.73-16.691-2.0273 0.039063-3.9531 0.88672-5.3516 2.3477-1.4023 1.4609-2.168 3.418-2.125 5.4453 0.085938 4.2148 3.5742 7.5625 7.793 7.4727 35.535-0.46094 70.902 4.9648 104.66 16.059 0.77344 0.22266 1.5703 0.32812 2.375 0.31641 3.3203 0.007813 6.2656-2.1367 7.2773-5.3008 1.2539-4.0156-0.92578-8.293-4.9062-9.6484zm0-45.887h-0.003906c-35.41-11.566-72.48-17.234-109.73-16.77-4.2383 0.089843-7.6016 3.5977-7.5156 7.8359 0.14844 4.2109 3.6172 7.5391 7.832 7.5156 35.535-0.56641 70.918 4.8359 104.66 15.98 0.76953 0.25 1.5664 0.38281 2.375 0.39844 3.3203 0.007813 6.2656-2.1367 7.2773-5.3008 1.2773-4.0195-0.90625-8.3203-4.9062-9.6602zm0-45.965h-0.003906c-35.402-11.582-72.48-17.223-109.73-16.691-4.2109 0.082031-7.5664 3.543-7.5156 7.75 0.17188 4.1992 3.6289 7.5156 7.832 7.5195 35.531-0.48828 70.898 4.9141 104.66 15.98 0.75781 0.28516 1.5664 0.42188 2.375 0.39844 3.3203 0.007813 6.2656-2.1367 7.2773-5.3008 1.2539-4.0156-0.92188-8.3008-4.9062-9.6562zm65.188 180.14-17.801 7.5977v-243.59l23.891-10.285c2.375-1.0273 4.8242-1.9766 7.2773-3.0078 35.078-13.82 72.605-20.336 110.29-19.145 11.613 0.28125 23.191 1.3672 34.652 3.2422v244.78c-53.641-8.0352-108.46-0.96875-158.3 20.41zm9.3359-170.49c1.0117 3.1641 3.9531 5.3086 7.2773 5.2969 0.80859 0.023437 1.6133-0.10938 2.3711-0.39453 33.781-11.02 69.141-16.418 104.67-15.984 4.1914-0.027344 7.6289-3.3281 7.832-7.5156 0.046874-4.207-3.3086-7.6641-7.5156-7.7461-37.25-0.5625-74.332 5.0781-109.73 16.691-3.9805 1.3555-6.1562 5.6367-4.9023 9.6523zm0 45.965v-0.003906c1.0117 3.1641 3.9531 5.3125 7.2773 5.3008 0.80469-0.015626 1.6055-0.14844 2.3711-0.39453 33.762-11.094 69.133-16.496 104.67-15.984 4.1875-0.027343 7.625-3.3203 7.832-7.5039 0.082031-4.2383-3.2773-7.7422-7.5156-7.832-37.246-0.45703-74.316 5.207-109.73 16.77-3.9922 1.3398-6.1758 5.6328-4.9023 9.6484zm9.6523 50.871-0.003906-0.003906c33.77-11.082 69.133-16.508 104.67-16.059 4.2148 0.03125 7.6875-3.3008 7.832-7.5156 0.050781-4.207-3.3047-7.668-7.5156-7.75-37.246-0.52344-74.324 5.1133-109.73 16.691-3.9805 1.3555-6.1562 5.6367-4.9023 9.6523 1.0117 3.1641 3.9531 5.3086 7.2773 5.3008 0.80078 0.011719 1.6016-0.097656 2.3711-0.31641z"/>
</svg>
